<svg 
 xmlns="http://www.w3.org/2000/svg"
 xmlns:xlink="http://www.w3.org/1999/xlink"
 width="386px" height="575px">
<defs>
<filter filterUnits="userSpaceOnUse" id="Filter_0" x="0px" y="0px" width="386px" height="575px"  >
    <feOffset in="SourceAlpha" dx="19.284" dy="22.981" />
    <feGaussianBlur result="blurOut" stdDeviation="8.246" />
    <feFlood flood-color="rgb(66, 115, 104)" result="floodOut" />
    <feComposite operator="atop" in="floodOut" in2="blurOut" />
    <feComponentTransfer><feFuncA type="linear" slope="0.46"/></feComponentTransfer>
    <feMerge>
    <feMergeNode/>
    <feMergeNode in="SourceGraphic"/>
  </feMerge>
</filter>
<linearGradient id="PSgrad_0" x1="0%" x2="65.606%" y1="0%" y2="75.471%">
  <stop offset="0%" stop-color="rgb(108,114,121)" stop-opacity="1" />
  <stop offset="43%" stop-color="rgb(81,88,96)" stop-opacity="1" />
  <stop offset="100%" stop-color="rgb(53,61,70)" stop-opacity="1" />
</linearGradient>

</defs>
<g filter="url(#Filter_0)">
<path fill-rule="evenodd"  fill="url(#PSgrad_0)"
 d="M50.278,46.115 L296.842,187.855 L296.842,481.993 L50.278,340.252 L50.278,46.115 ZM170.207,188.187 C216.094,214.601 253.294,273.102 253.294,318.853 C253.294,364.603 216.094,380.278 170.207,353.864 C124.320,327.450 87.121,268.949 87.121,223.199 C87.121,177.449 124.320,161.773 170.207,188.187 Z"/>
</g>
<path fill-rule="evenodd"  opacity="0.812" fill="rgb(255, 255, 255)"
 d="M257.894,211.096 C258.113,211.396 258.477,211.693 258.987,211.988 L260.655,212.951 L260.655,216.917 L258.277,215.543 C256.563,214.554 255.237,213.409 254.299,212.110 C253.360,210.811 252.891,209.241 252.891,207.399 L252.891,201.053 L251.469,200.232 L251.469,196.348 L252.891,197.169 L252.891,193.449 L257.566,196.149 L257.566,199.869 L260.628,201.638 L260.628,205.522 L257.566,203.753 L257.566,210.100 C257.566,210.464 257.675,210.797 257.894,211.096 ZM245.851,198.464 C245.314,198.664 245.045,199.402 245.045,200.678 L245.045,207.900 L240.370,205.199 L240.370,189.936 L245.045,192.637 L245.045,195.481 C245.555,194.846 246.184,194.475 246.931,194.369 C247.678,194.263 248.507,194.472 249.419,194.999 L249.419,199.759 L248.271,199.095 C247.195,198.474 246.389,198.264 245.851,198.464 ZM226.209,190.919 C226.300,191.646 226.601,192.372 227.111,193.095 C227.621,193.818 228.259,194.401 229.025,194.843 C229.608,195.180 230.045,195.347 230.337,195.341 C230.628,195.337 230.938,195.229 231.267,195.017 L236.324,197.938 C235.887,199.218 235.012,199.948 233.700,200.129 C232.387,200.310 230.829,199.879 229.025,198.837 C227.566,197.995 226.259,196.920 225.102,195.613 C223.944,194.307 223.042,192.869 222.395,191.301 C221.748,189.733 221.425,188.165 221.425,186.596 C221.425,185.028 221.748,183.842 222.395,183.040 C223.042,182.238 223.940,181.854 225.088,181.888 C226.236,181.922 227.539,182.360 228.997,183.202 C230.474,184.055 231.804,185.129 232.989,186.424 C234.173,187.720 235.108,189.157 235.791,190.737 C236.475,192.318 236.816,193.928 236.816,195.569 C236.816,196.099 236.780,196.570 236.707,196.983 L226.209,190.919 ZM231.021,189.035 C230.474,188.272 229.799,187.659 228.997,187.196 C228.305,186.796 227.703,186.672 227.193,186.824 C226.683,186.976 226.364,187.370 226.236,188.008 L231.950,191.309 C231.877,190.555 231.567,189.798 231.021,189.035 ZM215.561,190.074 C214.494,190.115 213.333,189.772 212.075,189.046 C210.179,187.951 208.685,186.285 207.591,184.049 L207.591,193.540 L202.917,190.840 L202.917,168.300 L207.591,171.001 L207.591,172.998 C208.630,172.158 210.125,172.300 212.075,173.427 C213.333,174.153 214.494,175.157 215.561,176.439 C216.627,177.721 217.470,179.133 218.090,180.676 C218.709,182.219 219.019,183.748 219.019,185.261 C219.019,186.775 218.709,187.945 218.090,188.773 C217.470,189.600 216.627,190.034 215.561,190.074 ZM213.784,180.158 C213.464,179.409 213.046,178.743 212.526,178.160 C212.007,177.577 211.474,177.128 210.927,176.812 C210.362,176.485 209.824,176.316 209.314,176.304 C208.803,176.292 208.389,176.472 208.070,176.844 C207.751,177.216 207.591,177.812 207.591,178.633 C207.591,179.453 207.751,180.238 208.070,180.988 C208.389,181.737 208.808,182.404 209.327,182.986 C209.847,183.569 210.380,184.018 210.927,184.334 C211.491,184.660 212.029,184.830 212.540,184.842 C213.050,184.854 213.464,184.674 213.784,184.302 C214.102,183.930 214.262,183.334 214.262,182.513 C214.262,181.693 214.102,180.908 213.784,180.158 ZM194.988,178.984 L192.501,173.581 L190.040,176.125 L185.420,173.457 L190.368,168.930 L185.420,158.193 L190.669,161.225 L193.157,166.629 L195.617,164.084 L200.237,166.753 L195.316,171.296 L200.237,182.016 L194.988,178.984 ZM173.200,160.298 C173.291,161.025 173.592,161.750 174.102,162.474 C174.612,163.197 175.250,163.780 176.016,164.222 C176.599,164.559 177.036,164.725 177.328,164.720 C177.619,164.715 177.929,164.607 178.258,164.396 L183.315,167.317 C182.878,168.596 182.003,169.326 180.691,169.507 C179.378,169.689 177.820,169.258 176.016,168.216 C174.557,167.373 173.250,166.299 172.093,164.992 C170.935,163.685 170.033,162.248 169.386,160.679 C168.739,159.112 168.416,157.543 168.416,155.975 C168.416,154.407 168.739,153.221 169.386,152.419 C170.033,151.616 170.931,151.232 172.079,151.266 C173.227,151.300 174.530,151.739 175.988,152.581 C177.465,153.434 178.795,154.508 179.980,155.803 C181.164,157.098 182.099,158.536 182.782,160.116 C183.466,161.697 183.807,163.307 183.807,164.948 C183.807,165.477 183.771,165.948 183.698,166.362 L173.200,160.298 ZM178.011,158.413 C177.465,157.651 176.790,157.038 175.988,156.575 C175.296,156.174 174.694,156.050 174.184,156.202 C173.674,156.355 173.354,156.749 173.227,157.387 L178.941,160.687 C178.868,159.934 178.558,159.176 178.011,158.413 ZM154.132,145.481 C153.594,145.681 153.325,146.419 153.325,147.695 L153.325,154.916 L148.650,152.216 L148.650,136.953 L153.325,139.653 L153.325,142.498 C153.835,141.863 154.464,141.492 155.212,141.386 C155.959,141.280 156.788,141.489 157.699,142.016 L157.699,146.776 L156.551,146.112 C155.476,145.491 154.669,145.281 154.132,145.481 ZM139.328,144.588 C138.872,145.073 138.248,145.300 137.455,145.270 C136.663,145.241 135.747,144.926 134.708,144.326 C133.560,143.663 132.543,142.816 131.660,141.786 C130.775,140.755 130.083,139.603 129.582,138.329 C129.080,137.054 128.830,135.752 128.830,134.421 L128.830,125.503 L133.478,128.188 L133.478,136.476 C133.478,137.461 133.737,138.373 134.257,139.210 C134.776,140.049 135.491,140.730 136.403,141.257 C137.314,141.783 138.030,141.928 138.549,141.690 C139.068,141.452 139.328,140.841 139.328,139.856 L139.328,131.568 L144.003,134.268 L144.003,149.531 L139.328,146.831 L139.328,144.588 ZM121.503,135.755 C120.300,135.707 118.961,135.257 117.484,134.404 C116.008,133.551 114.659,132.449 113.438,131.096 C112.217,129.743 111.251,128.269 110.540,126.673 C109.830,125.077 109.474,123.495 109.474,121.927 C109.474,120.358 109.830,119.191 110.540,118.426 C111.251,117.660 112.212,117.313 113.425,117.384 C114.637,117.455 115.981,117.917 117.457,118.769 C118.915,119.612 120.250,120.698 121.462,122.027 C122.674,123.356 123.636,124.814 124.346,126.401 C125.057,127.988 125.413,129.566 125.413,131.134 C125.413,132.702 125.062,133.876 124.360,134.656 C123.658,135.436 122.706,135.802 121.503,135.755 ZM119.699,125.029 C119.061,124.013 118.314,123.258 117.457,122.763 C116.564,122.247 115.803,122.132 115.174,122.416 C114.546,122.700 114.231,123.462 114.231,124.702 C114.231,125.942 114.555,127.077 115.202,128.107 C115.848,129.137 116.610,129.905 117.484,130.410 C118.359,130.916 119.106,131.019 119.726,130.721 C120.346,130.422 120.656,129.653 120.656,128.413 C120.656,127.173 120.337,126.045 119.699,125.029 ZM100.917,124.642 L96.243,121.942 L96.243,115.760 L89.599,98.902 L94.903,101.966 L98.594,112.769 L102.257,106.214 L107.561,109.278 L100.917,118.461 L100.917,124.642 Z"/>
</svg>