<svg
        xmlns="http://www.w3.org/2000/svg"
        xmlns:xlink="http://www.w3.org/1999/xlink"
        width="348px" height="328px">
    <defs>
        <filter filterUnits="userSpaceOnUse" id="Filter_0" x="0px" y="0px" width="348px" height="328px"  >
            <feOffset in="SourceAlpha" dx="7.757" dy="13.994" />
            <feGaussianBlur result="blurOut" stdDeviation="5.196" />
            <feFlood flood-color="rgb(66, 115, 104)" result="floodOut" />
            <feComposite operator="atop" in="floodOut" in2="blurOut" />
            <feComponentTransfer><feFuncA type="linear" slope="0.09"/></feComponentTransfer>
            <feMerge>
                <feMergeNode/>
                <feMergeNode in="SourceGraphic"/>
            </feMerge>
        </filter>

    </defs>
    <g filter="url(#Filter_0)">
        <path fill-rule="evenodd"  fill="rgb(178, 247, 233)"
              d="M293.717,270.796 L293.717,285.001 L276.665,285.001 L276.665,270.796 L54.098,270.796 L54.098,285.001 L37.045,285.001 L37.045,270.796 L19.992,270.796 L19.992,13.995 L311.014,13.995 L311.014,270.796 L293.717,270.796 ZM292.825,136.032 L276.910,136.032 L276.910,48.084 L54.096,48.084 L54.096,236.707 L276.910,236.707 L276.910,147.394 L292.825,147.394 L292.825,136.032 ZM65.464,59.447 L265.542,59.447 L265.542,136.032 L248.488,136.032 L248.488,147.394 L265.542,147.394 L265.542,225.344 L65.464,225.344 L65.464,59.447 ZM166.092,187.193 C190.784,187.193 210.873,167.106 210.873,142.418 C210.873,117.729 190.784,97.643 166.092,97.643 C141.400,97.643 121.311,117.729 121.311,142.418 C121.311,167.106 141.400,187.193 166.092,187.193 ZM159.755,110.946 L159.755,124.054 C152.143,126.688 146.659,133.922 146.659,142.418 C146.659,143.017 146.691,143.609 146.744,144.195 L135.272,151.397 C134.440,148.545 133.985,145.534 133.985,142.418 C133.985,126.885 145.076,113.897 159.755,110.946 ZM166.092,161.848 C171.586,161.848 176.551,159.552 180.089,155.875 L190.958,162.700 C185.066,169.909 176.108,174.521 166.092,174.521 C156.053,174.521 147.078,169.886 141.186,162.648 L152.050,155.828 C155.590,159.533 160.574,161.848 166.092,161.848 ZM185.524,142.418 C185.524,133.922 180.041,126.688 172.429,124.054 L172.429,110.946 C187.108,113.897 198.199,126.885 198.199,142.418 C198.199,145.558 197.737,148.591 196.893,151.462 L185.434,144.267 C185.492,143.658 185.524,143.041 185.524,142.418 ZM166.092,149.175 C162.366,149.175 159.334,146.143 159.334,142.418 C159.334,138.692 162.366,135.660 166.092,135.660 C169.818,135.660 172.850,138.692 172.850,142.418 C172.850,146.143 169.818,149.175 166.092,149.175 Z"/>
    </g>
</svg>
