<svg
        xmlns="http://www.w3.org/2000/svg"
        xmlns:xlink="http://www.w3.org/1999/xlink"
        width="349px" height="364px">
    <defs>
        <filter filterUnits="userSpaceOnUse" id="Filter_0" x="0px" y="0px" width="349px" height="364px"  >
            <feOffset in="SourceAlpha" dx="7.757" dy="13.994" />
            <feGaussianBlur result="blurOut" stdDeviation="5.196" />
            <feFlood flood-color="rgb(66, 115, 104)" result="floodOut" />
            <feComposite operator="atop" in="floodOut" in2="blurOut" />
            <feComponentTransfer><feFuncA type="linear" slope="0.09"/></feComponentTransfer>
            <feMerge>
                <feMergeNode/>
                <feMergeNode in="SourceGraphic"/>
            </feMerge>
        </filter>

    </defs>
    <g filter="url(#Filter_0)">
        <path fill-rule="evenodd"  fill="rgb(178, 247, 233)"
              d="M277.784,217.130 L277.241,217.130 C274.608,245.659 259.129,272.896 235.044,288.628 L235.010,312.448 C235.010,317.180 231.184,321.010 226.455,321.010 L191.666,321.010 C186.938,321.010 183.112,317.180 183.112,312.448 L183.112,303.887 L140.338,303.887 C137.473,303.887 134.624,303.761 131.784,303.502 L131.784,312.448 C131.784,317.180 127.387,321.010 122.659,321.010 L88.440,321.010 C83.711,321.010 79.885,317.180 79.885,312.448 C79.885,312.448 79.885,293.778 79.843,282.332 C69.936,274.130 61.782,263.963 55.942,252.542 C51.423,252.517 45.692,252.542 45.666,252.517 C31.515,252.517 20.002,240.996 20.002,226.833 L20.002,208.568 C20.002,194.405 31.515,182.883 45.666,182.883 L49.509,182.883 C53.586,168.528 61.080,155.309 71.331,144.373 L71.331,105.830 C71.331,101.097 75.157,97.268 79.885,97.268 C96.343,97.268 111.840,104.065 123.169,116.097 C129.133,114.934 135.075,114.391 140.338,114.391 L166.002,114.391 L183.112,114.391 C232.112,114.391 273.008,152.080 277.350,200.007 L277.784,200.007 C287.215,200.007 294.893,192.323 294.893,182.883 C294.893,178.310 293.114,174.013 289.881,170.777 C286.539,167.433 286.539,162.014 289.881,158.670 C293.222,155.326 298.636,155.326 301.977,158.670 C308.444,165.142 312.002,173.737 312.002,182.883 C312.002,201.771 296.656,217.130 277.784,217.130 ZM88.356,182.883 C83.628,182.883 79.710,186.796 79.710,191.528 C79.710,196.260 83.628,200.173 88.356,200.173 C93.085,200.173 96.994,196.260 96.994,191.528 C96.994,186.796 93.085,182.883 88.356,182.883 ZM193.024,150.571 L138.251,150.571 C134.466,150.571 130.948,153.706 130.948,157.581 C130.948,161.455 134.466,164.591 138.251,164.591 L193.024,164.591 C196.808,164.591 199.871,161.455 199.871,157.581 C199.871,153.706 196.808,150.571 193.024,150.571 ZM166.273,94.532 C143.888,94.532 125.133,76.465 125.133,54.260 C125.133,32.055 143.888,13.987 166.273,13.987 C188.658,13.987 206.872,32.055 206.872,54.260 C206.872,76.465 188.658,94.532 166.273,94.532 ZM166.586,22.141 C148.882,22.141 134.480,36.284 134.480,53.670 C134.480,71.056 148.882,85.199 166.586,85.199 C184.289,85.199 198.691,71.056 198.691,53.670 C198.691,36.284 184.289,22.141 166.586,22.141 Z"/>
    </g>
</svg>
