<svg 
 xmlns="http://www.w3.org/2000/svg"
 xmlns:xlink="http://www.w3.org/1999/xlink"
 width="931px" height="799px">
<defs>
<filter filterUnits="userSpaceOnUse" id="Filter_0" x="0px" y="7px" width="572px" height="792px"  >
    <feOffset in="SourceAlpha" dx="-25.981" dy="15" />
    <feGaussianBlur result="blurOut" stdDeviation="8.246" />
    <feFlood flood-color="rgb(66, 115, 104)" result="floodOut" />
    <feComposite operator="atop" in="floodOut" in2="blurOut" />
    <feComponentTransfer><feFuncA type="linear" slope="0.46"/></feComponentTransfer>
    <feMerge>
    <feMergeNode/>
    <feMergeNode in="SourceGraphic"/>
  </feMerge>
</filter>
<linearGradient id="PSgrad_0" x1="0%" x2="65.606%" y1="0%" y2="75.471%">
  <stop offset="0%" stop-color="rgb(108,114,121)" stop-opacity="1" />
  <stop offset="43%" stop-color="rgb(81,88,96)" stop-opacity="1" />
  <stop offset="100%" stop-color="rgb(53,61,70)" stop-opacity="1" />
</linearGradient>
<filter filterUnits="userSpaceOnUse" id="Filter_1" x="545px" y="0px" width="386px" height="575px"  >
    <feOffset in="SourceAlpha" dx="19.284" dy="22.981" />
    <feGaussianBlur result="blurOut" stdDeviation="8.246" />
    <feFlood flood-color="rgb(66, 115, 104)" result="floodOut" />
    <feComposite operator="atop" in="floodOut" in2="blurOut" />
    <feComponentTransfer><feFuncA type="linear" slope="0.46"/></feComponentTransfer>
    <feMerge>
    <feMergeNode/>
    <feMergeNode in="SourceGraphic"/>
  </feMerge>
</filter>

</defs>
<g filter="url(#Filter_0)">
<path fill-rule="evenodd"  fill="url(#PSgrad_0)"
 d="M168.967,302.358 L527.457,61.896 L456.717,441.344 L95.808,713.117 L168.967,302.358 ZM319.841,268.990 C380.573,233.590 429.805,254.475 429.805,315.636 C429.805,376.798 380.573,455.076 319.841,490.476 C259.110,525.876 209.877,504.991 209.877,443.830 C209.877,382.668 259.110,304.390 319.841,268.990 Z"/>
</g>
<path fill-rule="evenodd"  opacity="0.812" fill="rgb(255, 255, 255)"
 d="M347.381,227.522 L341.635,231.436 L341.928,228.518 C341.270,229.873 340.426,231.160 339.395,232.381 C338.365,233.603 337.211,234.648 335.934,235.518 C334.522,236.480 333.307,236.993 332.289,237.056 C331.270,237.121 330.517,236.722 330.031,235.860 C329.543,234.999 329.387,233.702 329.562,231.969 L330.730,220.367 L336.443,216.476 L335.357,227.260 C335.228,228.541 335.447,229.314 336.015,229.579 C336.583,229.844 337.427,229.595 338.548,228.832 C339.668,228.069 340.582,227.120 341.291,225.985 C342.000,224.850 342.419,223.642 342.548,222.361 L343.634,211.577 L349.381,207.663 L347.381,227.522 ZM323.698,239.378 C322.680,241.508 321.390,243.498 319.826,245.347 C318.263,247.197 316.574,248.739 314.759,249.975 C312.944,251.211 311.328,251.920 309.913,252.100 C308.496,252.280 307.429,251.897 306.711,250.950 C305.992,250.003 305.736,248.509 305.941,246.468 C306.146,244.428 306.763,242.345 307.791,240.219 C308.819,238.094 310.119,236.114 311.691,234.281 C313.263,232.447 314.957,230.913 316.771,229.677 C318.564,228.456 320.163,227.747 321.571,227.551 C322.978,227.355 324.042,227.724 324.762,228.659 C325.481,229.594 325.738,231.082 325.533,233.123 C325.327,235.163 324.715,237.249 323.698,239.378 ZM318.877,234.259 C318.177,233.951 317.301,234.155 316.248,234.872 C315.150,235.620 314.173,236.679 313.315,238.047 C312.457,239.416 311.947,240.907 311.785,242.521 C311.622,244.134 311.896,245.097 312.605,245.409 C313.314,245.722 314.207,245.512 315.282,244.779 C316.357,244.047 317.319,242.994 318.167,241.621 C319.014,240.248 319.519,238.755 319.682,237.141 C319.844,235.528 319.576,234.567 318.877,234.259 ZM294.420,263.598 L288.673,267.513 L289.483,259.469 L283.023,248.091 L289.542,243.650 L292.943,251.842 L298.582,237.492 L305.101,233.052 L295.229,255.555 L294.420,263.598 Z"/>
<g filter="url(#Filter_1)">
<path fill-rule="evenodd"  fill="url(#PSgrad_0)"
 d="M595.278,46.115 L841.842,187.855 L841.842,481.993 L595.278,340.252 L595.278,46.115 ZM715.207,188.187 C761.094,214.601 798.294,273.102 798.294,318.853 C798.294,364.603 761.094,380.278 715.207,353.864 C669.320,327.450 632.121,268.949 632.121,223.199 C632.121,177.449 669.320,161.773 715.207,188.187 Z"/>
</g>
<path fill-rule="evenodd"  opacity="0.812" fill="rgb(255, 255, 255)"
 d="M802.894,211.096 C803.113,211.396 803.477,211.693 803.987,211.988 L805.655,212.951 L805.655,216.917 L803.277,215.543 C801.563,214.554 800.237,213.409 799.299,212.110 C798.360,210.811 797.891,209.241 797.891,207.399 L797.891,201.053 L796.469,200.232 L796.469,196.348 L797.891,197.169 L797.891,193.449 L802.566,196.149 L802.566,199.869 L805.628,201.638 L805.628,205.522 L802.566,203.753 L802.566,210.100 C802.566,210.464 802.675,210.797 802.894,211.096 ZM790.851,198.464 C790.314,198.664 790.045,199.402 790.045,200.678 L790.045,207.900 L785.370,205.199 L785.370,189.936 L790.045,192.637 L790.045,195.481 C790.555,194.846 791.184,194.475 791.931,194.369 C792.678,194.263 793.507,194.472 794.419,194.999 L794.419,199.759 L793.271,199.095 C792.195,198.474 791.389,198.264 790.851,198.464 ZM771.209,190.919 C771.300,191.646 771.601,192.372 772.111,193.095 C772.621,193.818 773.259,194.401 774.025,194.843 C774.608,195.180 775.045,195.347 775.337,195.341 C775.628,195.337 775.938,195.229 776.267,195.017 L781.324,197.938 C780.887,199.218 780.012,199.948 778.700,200.129 C777.387,200.310 775.829,199.879 774.025,198.837 C772.566,197.995 771.259,196.920 770.102,195.613 C768.944,194.307 768.042,192.869 767.395,191.301 C766.748,189.733 766.425,188.165 766.425,186.596 C766.425,185.028 766.748,183.842 767.395,183.040 C768.042,182.238 768.940,181.854 770.088,181.888 C771.236,181.922 772.539,182.360 773.997,183.202 C775.474,184.055 776.804,185.129 777.989,186.424 C779.173,187.720 780.108,189.157 780.791,190.737 C781.475,192.318 781.816,193.928 781.816,195.569 C781.816,196.099 781.780,196.570 781.707,196.983 L771.209,190.919 ZM776.021,189.035 C775.474,188.272 774.799,187.659 773.997,187.196 C773.305,186.796 772.703,186.672 772.193,186.824 C771.683,186.976 771.364,187.370 771.236,188.008 L776.950,191.309 C776.877,190.555 776.567,189.798 776.021,189.035 ZM760.561,190.074 C759.494,190.115 758.333,189.772 757.075,189.046 C755.179,187.951 753.685,186.285 752.591,184.049 L752.591,193.540 L747.917,190.840 L747.917,168.300 L752.591,171.001 L752.591,172.998 C753.630,172.158 755.125,172.300 757.075,173.427 C758.333,174.153 759.494,175.157 760.561,176.439 C761.627,177.721 762.470,179.133 763.090,180.676 C763.709,182.219 764.019,183.748 764.019,185.261 C764.019,186.775 763.709,187.945 763.090,188.773 C762.470,189.600 761.627,190.034 760.561,190.074 ZM758.784,180.158 C758.464,179.409 758.046,178.743 757.526,178.160 C757.007,177.577 756.474,177.128 755.927,176.812 C755.362,176.485 754.824,176.316 754.314,176.304 C753.803,176.292 753.389,176.472 753.070,176.844 C752.751,177.216 752.591,177.812 752.591,178.633 C752.591,179.453 752.751,180.238 753.070,180.988 C753.389,181.737 753.808,182.404 754.327,182.986 C754.847,183.569 755.380,184.018 755.927,184.334 C756.491,184.660 757.029,184.830 757.540,184.842 C758.050,184.854 758.464,184.674 758.784,184.302 C759.102,183.930 759.262,183.334 759.262,182.513 C759.262,181.693 759.102,180.908 758.784,180.158 ZM739.988,178.984 L737.501,173.581 L735.040,176.125 L730.420,173.457 L735.368,168.930 L730.420,158.193 L735.669,161.225 L738.157,166.629 L740.617,164.084 L745.237,166.753 L740.316,171.296 L745.237,182.016 L739.988,178.984 ZM718.200,160.298 C718.291,161.025 718.592,161.750 719.102,162.474 C719.612,163.197 720.250,163.780 721.016,164.222 C721.599,164.559 722.036,164.725 722.328,164.720 C722.619,164.715 722.929,164.607 723.258,164.396 L728.315,167.317 C727.878,168.596 727.003,169.326 725.691,169.507 C724.378,169.689 722.820,169.258 721.016,168.216 C719.557,167.373 718.250,166.299 717.093,164.992 C715.935,163.685 715.033,162.248 714.386,160.679 C713.739,159.112 713.416,157.543 713.416,155.975 C713.416,154.407 713.739,153.221 714.386,152.419 C715.033,151.616 715.931,151.232 717.079,151.266 C718.227,151.300 719.530,151.739 720.988,152.581 C722.465,153.434 723.795,154.508 724.980,155.803 C726.164,157.098 727.099,158.536 727.782,160.116 C728.466,161.697 728.807,163.307 728.807,164.948 C728.807,165.477 728.771,165.948 728.698,166.362 L718.200,160.298 ZM723.011,158.413 C722.465,157.651 721.790,157.038 720.988,156.575 C720.296,156.174 719.694,156.050 719.184,156.202 C718.674,156.355 718.354,156.749 718.227,157.387 L723.941,160.687 C723.868,159.934 723.558,159.176 723.011,158.413 ZM699.132,145.481 C698.594,145.681 698.325,146.419 698.325,147.695 L698.325,154.916 L693.650,152.216 L693.650,136.953 L698.325,139.653 L698.325,142.498 C698.835,141.863 699.464,141.492 700.212,141.386 C700.959,141.280 701.788,141.489 702.699,142.016 L702.699,146.776 L701.551,146.112 C700.476,145.491 699.669,145.281 699.132,145.481 ZM684.328,144.588 C683.872,145.073 683.248,145.300 682.455,145.270 C681.663,145.241 680.747,144.926 679.708,144.326 C678.560,143.663 677.543,142.816 676.660,141.786 C675.775,140.755 675.083,139.603 674.582,138.329 C674.080,137.054 673.830,135.752 673.830,134.421 L673.830,125.503 L678.478,128.188 L678.478,136.476 C678.478,137.461 678.737,138.373 679.257,139.210 C679.776,140.049 680.491,140.730 681.403,141.257 C682.314,141.783 683.030,141.928 683.549,141.690 C684.068,141.452 684.328,140.841 684.328,139.856 L684.328,131.568 L689.003,134.268 L689.003,149.531 L684.328,146.831 L684.328,144.588 ZM666.503,135.755 C665.300,135.707 663.961,135.257 662.484,134.404 C661.008,133.551 659.659,132.449 658.438,131.096 C657.217,129.743 656.251,128.269 655.540,126.673 C654.830,125.077 654.474,123.495 654.474,121.927 C654.474,120.358 654.830,119.191 655.540,118.426 C656.251,117.660 657.212,117.313 658.425,117.384 C659.637,117.455 660.981,117.917 662.457,118.769 C663.915,119.612 665.250,120.698 666.462,122.027 C667.674,123.356 668.636,124.814 669.346,126.401 C670.057,127.988 670.413,129.566 670.413,131.134 C670.413,132.702 670.062,133.876 669.360,134.656 C668.658,135.436 667.706,135.802 666.503,135.755 ZM664.699,125.029 C664.061,124.013 663.314,123.258 662.457,122.763 C661.564,122.247 660.803,122.132 660.174,122.416 C659.546,122.700 659.231,123.462 659.231,124.702 C659.231,125.942 659.555,127.077 660.202,128.107 C660.848,129.137 661.610,129.905 662.484,130.410 C663.359,130.916 664.106,131.019 664.726,130.721 C665.346,130.422 665.656,129.653 665.656,128.413 C665.656,127.173 665.337,126.045 664.699,125.029 ZM645.917,124.642 L641.243,121.942 L641.243,115.760 L634.599,98.902 L639.903,101.966 L643.594,112.769 L647.257,106.214 L652.561,109.278 L645.917,118.461 L645.917,124.642 Z"/>
</svg>