<svg 
 xmlns="http://www.w3.org/2000/svg"
 xmlns:xlink="http://www.w3.org/1999/xlink"
 width="572px" height="792px">
<defs>
<filter filterUnits="userSpaceOnUse" id="Filter_0" x="0px" y="0px" width="572px" height="792px"  >
    <feOffset in="SourceAlpha" dx="-25.981" dy="15" />
    <feGaussianBlur result="blurOut" stdDeviation="8.246" />
    <feFlood flood-color="rgb(66, 115, 104)" result="floodOut" />
    <feComposite operator="atop" in="floodOut" in2="blurOut" />
    <feComponentTransfer><feFuncA type="linear" slope="0.46"/></feComponentTransfer>
    <feMerge>
    <feMergeNode/>
    <feMergeNode in="SourceGraphic"/>
  </feMerge>
</filter>
<linearGradient id="PSgrad_0" x1="0%" x2="65.606%" y1="0%" y2="75.471%">
  <stop offset="0%" stop-color="rgb(108,114,121)" stop-opacity="1" />
  <stop offset="43%" stop-color="rgb(81,88,96)" stop-opacity="1" />
  <stop offset="100%" stop-color="rgb(53,61,70)" stop-opacity="1" />
</linearGradient>

</defs>
<g filter="url(#Filter_0)">
<path fill-rule="evenodd"  fill="url(#PSgrad_0)"
 d="M168.967,295.358 L527.457,54.896 L456.717,434.344 L95.808,706.117 L168.967,295.358 ZM319.841,261.990 C380.573,226.590 429.805,247.475 429.805,308.636 C429.805,369.798 380.573,448.076 319.841,483.476 C259.110,518.876 209.877,497.991 209.877,436.830 C209.877,375.668 259.110,297.390 319.841,261.990 Z"/>
</g>
<path fill-rule="evenodd"  opacity="0.812" fill="rgb(255, 255, 255)"
 d="M347.381,220.522 L341.635,224.436 L341.928,221.518 C341.270,222.873 340.426,224.160 339.395,225.381 C338.365,226.603 337.211,227.648 335.934,228.518 C334.522,229.480 333.307,229.993 332.289,230.056 C331.270,230.121 330.517,229.722 330.031,228.860 C329.543,227.999 329.387,226.702 329.562,224.969 L330.730,213.367 L336.443,209.476 L335.357,220.260 C335.228,221.541 335.447,222.314 336.015,222.579 C336.583,222.844 337.427,222.595 338.548,221.832 C339.668,221.069 340.582,220.120 341.291,218.985 C342.000,217.850 342.419,216.642 342.548,215.361 L343.634,204.577 L349.381,200.663 L347.381,220.522 ZM323.698,232.378 C322.680,234.508 321.390,236.498 319.826,238.347 C318.263,240.197 316.574,241.739 314.759,242.975 C312.944,244.211 311.328,244.920 309.913,245.100 C308.496,245.280 307.429,244.897 306.711,243.950 C305.992,243.003 305.736,241.509 305.941,239.468 C306.146,237.428 306.763,235.345 307.791,233.219 C308.819,231.094 310.119,229.114 311.691,227.281 C313.263,225.447 314.957,223.913 316.771,222.677 C318.564,221.456 320.163,220.747 321.571,220.551 C322.978,220.355 324.042,220.724 324.762,221.659 C325.481,222.594 325.738,224.082 325.533,226.123 C325.327,228.163 324.715,230.249 323.698,232.378 ZM318.877,227.259 C318.177,226.951 317.301,227.155 316.248,227.872 C315.150,228.620 314.173,229.679 313.315,231.047 C312.457,232.416 311.947,233.907 311.785,235.521 C311.622,237.134 311.896,238.097 312.605,238.409 C313.314,238.722 314.207,238.512 315.282,237.779 C316.357,237.047 317.319,235.994 318.167,234.621 C319.014,233.248 319.519,231.755 319.682,230.141 C319.844,228.528 319.576,227.567 318.877,227.259 ZM294.420,256.598 L288.673,260.513 L289.483,252.469 L283.023,241.091 L289.542,236.650 L292.943,244.842 L298.582,230.492 L305.101,226.052 L295.229,248.555 L294.420,256.598 Z"/>
</svg>