<svg
        xmlns="http://www.w3.org/2000/svg"
        xmlns:xlink="http://www.w3.org/1999/xlink"
        width="131px" height="142px">
    <defs>
        <filter filterUnits="userSpaceOnUse" id="Filter_0" x="0px" y="0px" width="131px" height="142px"  >
            <feOffset in="SourceAlpha" dx="0" dy="22" />
            <feGaussianBlur result="blurOut" stdDeviation="6.325" />
            <feFlood flood-color="rgb(66, 115, 104)" result="floodOut" />
            <feComposite operator="atop" in="floodOut" in2="blurOut" />
            <feComponentTransfer><feFuncA type="linear" slope="0.14"/></feComponentTransfer>
            <feMerge>
                <feMergeNode/>
                <feMergeNode in="SourceGraphic"/>
            </feMerge>
        </filter>

    </defs>
    <g filter="url(#Filter_0)">
        <path fill-rule="evenodd"  fill="rgb(255, 255, 255)"
              d="M90.930,33.587 C90.857,31.955 90.857,30.397 90.857,28.840 C90.857,27.579 89.906,26.614 88.662,26.614 C79.517,26.614 72.567,23.944 66.787,18.232 C65.910,17.417 64.593,17.417 63.715,18.232 C57.935,23.944 50.985,26.614 41.840,26.614 C40.596,26.614 39.645,27.579 39.645,28.840 C39.645,30.397 39.645,31.955 39.572,33.587 C39.279,49.164 38.840,70.526 64.520,79.502 L65.251,79.650 L65.983,79.502 C91.589,70.526 91.223,49.238 90.930,33.587 Z"/>
    </g>
    <path fill-rule="evenodd"  fill="rgb(157, 227, 213)"
          d="M65.240,70.286 L64.466,70.115 C47.686,64.108 47.945,49.966 48.134,39.640 C48.182,38.533 48.182,37.542 48.182,36.550 C48.182,35.219 49.220,34.180 50.496,34.180 C50.496,34.180 50.497,34.180 50.498,34.180 C55.987,34.180 60.153,32.549 63.609,29.050 C64.513,28.164 65.967,28.165 66.860,29.039 C70.328,32.549 74.494,34.180 79.984,34.180 L80.100,34.183 C80.686,34.204 81.259,34.466 81.680,34.920 C82.100,35.374 82.320,35.965 82.298,36.584 C82.298,37.542 82.298,38.534 82.344,39.572 L82.345,39.597 C82.534,49.934 82.793,64.092 66.016,70.115 L65.891,70.150 L65.240,70.286 ZM65.033,68.333 L65.240,68.375 L65.447,68.333 C80.896,62.752 80.658,49.400 80.480,39.643 C80.433,38.581 80.433,37.565 80.433,36.550 C80.439,36.355 80.360,36.245 80.313,36.194 C80.266,36.143 80.163,36.057 80.001,36.050 C73.963,36.050 69.375,34.244 65.544,30.366 C65.378,30.202 65.102,30.203 64.924,30.376 C61.106,34.244 56.518,36.050 50.497,36.050 C50.497,36.050 50.497,36.050 50.496,36.050 C50.248,36.050 50.047,36.252 50.047,36.500 C50.048,37.569 50.048,38.588 50.001,39.655 C49.822,49.420 49.576,62.764 65.033,68.333 Z"/>
</svg>
