<svg
        xmlns="http://www.w3.org/2000/svg"
        xmlns:xlink="http://www.w3.org/1999/xlink"
        width="132px" height="139px">
    <defs>
        <filter filterUnits="userSpaceOnUse" id="Filter_0" x="0px" y="0px" width="132px" height="139px"  >
            <feOffset in="SourceAlpha" dx="0" dy="22" />
            <feGaussianBlur result="blurOut" stdDeviation="6.325" />
            <feFlood flood-color="rgb(66, 115, 104)" result="floodOut" />
            <feComposite operator="atop" in="floodOut" in2="blurOut" />
            <feComponentTransfer><feFuncA type="linear" slope="0.14"/></feComponentTransfer>
            <feMerge>
                <feMergeNode/>
                <feMergeNode in="SourceGraphic"/>
            </feMerge>
        </filter>

    </defs>
    <g filter="url(#Filter_0)">
        <path fill-rule="evenodd"  fill="rgb(255, 255, 255)"
              d="M43.812,17.812 L87.281,17.812 C89.490,17.812 91.281,19.603 91.281,21.812 L91.281,72.312 C91.281,74.522 89.490,76.312 87.281,76.312 L43.812,76.312 C41.603,76.312 39.812,74.522 39.812,72.312 L39.812,21.812 C39.812,19.603 41.603,17.812 43.812,17.812 Z"/>
    </g>
    <path fill-rule="evenodd"  fill="rgb(157, 227, 213)"
          d="M85.871,64.591 L60.471,64.591 C60.058,64.591 59.724,64.260 59.724,63.852 L59.724,63.482 C59.724,63.075 60.058,62.744 60.471,62.744 L85.871,62.744 C86.284,62.744 86.619,63.075 86.619,63.482 L86.619,63.852 C86.619,64.260 86.284,64.591 85.871,64.591 ZM67.373,54.292 C67.237,54.560 66.965,54.658 66.679,54.658 C66.485,54.658 66.284,54.612 66.114,54.544 C61.195,52.561 56.227,50.576 52.060,48.895 C51.648,48.729 51.546,48.397 51.813,47.973 C54.614,43.527 64.653,28.696 64.653,28.696 C64.815,28.462 65.126,28.326 65.441,28.326 C65.569,28.326 65.698,28.349 65.817,28.396 L77.810,33.168 C78.222,33.332 78.424,33.756 78.258,34.110 C78.258,34.110 69.789,49.550 67.373,54.292 ZM65.769,30.368 C63.983,33.010 57.189,43.077 54.166,47.750 C55.845,48.425 57.630,49.141 59.471,49.880 C61.650,50.755 63.909,51.661 66.164,52.570 C68.545,47.994 74.052,37.911 75.961,34.424 L65.769,30.368 ZM66.253,56.468 L65.207,58.546 C65.119,58.721 64.874,58.923 64.662,58.995 L60.197,60.232 C60.110,60.257 60.001,60.269 59.889,60.269 C59.724,60.269 59.552,60.243 59.429,60.194 L51.184,56.913 C50.977,56.831 50.761,56.614 50.703,56.430 L49.345,52.243 C49.300,52.057 49.352,51.768 49.461,51.601 L50.403,50.162 C50.481,50.042 50.635,49.973 50.792,49.973 C50.854,49.973 50.917,49.984 50.976,50.008 L66.038,56.001 C66.244,56.083 66.341,56.293 66.253,56.468 ZM51.333,52.141 L51.293,52.202 L52.322,55.375 L59.909,58.394 L63.730,57.336 L63.840,57.117 L51.333,52.141 ZM51.961,58.824 L57.043,60.846 C57.442,61.005 57.587,61.396 57.365,61.714 L55.762,64.012 C55.540,64.330 54.996,64.591 54.553,64.591 L48.548,64.591 C48.105,64.591 47.899,64.319 48.090,63.987 L50.887,59.139 C51.078,58.807 51.562,58.665 51.961,58.824 Z"/>
</svg>
