<svg
        xmlns="http://www.w3.org/2000/svg"
        xmlns:xlink="http://www.w3.org/1999/xlink"
        width="400px" height="415px">
    <defs>
        <filter filterUnits="userSpaceOnUse" id="Filter_0" x="0px" y="15px" width="400px" height="400px"  >
            <feOffset in="SourceAlpha" dx="12.12" dy="21.865" />
            <feGaussianBlur result="blurOut" stdDeviation="5.916" />
            <feFlood flood-color="rgb(66, 115, 104)" result="floodOut" />
            <feComposite operator="atop" in="floodOut" in2="blurOut" />
            <feComponentTransfer><feFuncA type="linear" slope="0.1"/></feComponentTransfer>
            <feMerge>
                <feMergeNode/>
                <feMergeNode in="SourceGraphic"/>
            </feMerge>
        </filter>

    </defs>
    <g filter="url(#Filter_0)">
        <path fill-rule="evenodd"  fill="rgb(178, 247, 233)"
              d="M188.933,14.730 C146.735,14.363 104.418,30.205 72.235,62.398 C8.606,126.025 8.606,229.227 72.235,292.844 C135.865,356.471 239.059,356.471 302.678,292.868 C334.872,260.651 350.715,219.831 350.347,177.634 L188.921,177.634 L188.933,14.730 L188.933,14.730 Z"/>
    </g>
    <path fill-rule="evenodd" id="geeks-parts"  fill="rgb(178, 247, 233)"
          d="M185.437,181.971 L185.437,14.667 L190.972,14.724 C233.445,15.123 273.324,31.945 303.298,62.050 C332.809,91.735 349.980,133.426 350.376,176.416 L350.433,181.971 L185.437,181.971 ZM295.556,69.834 C268.932,43.064 233.493,26.884 195.980,25.188 L195.980,171.438 L339.890,171.438 C338.169,133.285 321.795,96.229 295.556,69.834 ZM241.471,131.259 C243.531,135.015 247.390,137.132 253.005,137.588 L253.005,110.350 C245.794,108.973 240.497,106.697 237.045,103.476 C233.626,100.301 231.917,95.839 231.917,90.182 C231.917,85.117 233.762,80.541 237.464,76.512 C241.154,72.426 246.350,70.355 253.016,70.286 L253.016,63.638 L257.725,63.638 L257.725,70.149 C264.325,70.650 269.396,72.585 272.905,76.022 C276.461,79.482 278.295,84.045 278.464,89.669 L269.749,89.669 C269.512,87.164 268.844,84.946 267.711,83.158 C265.617,79.778 262.278,78.002 257.704,77.821 L257.704,102.190 C265.389,104.351 270.642,106.390 273.382,108.302 C277.853,111.397 280.118,116.077 280.128,122.198 C280.128,131.053 277.263,137.371 271.490,141.104 C268.332,143.141 263.735,144.484 257.713,145.190 L257.713,154.910 L253.005,154.910 L253.005,145.190 C243.373,144.564 236.796,141.138 233.355,134.900 C231.452,131.520 230.501,126.978 230.501,121.242 L239.342,121.242 C239.581,125.807 240.292,129.141 241.471,131.259 ZM257.715,137.838 C263.411,137.554 267.303,135.505 269.477,131.600 C270.587,129.574 271.141,127.264 271.141,124.636 C271.141,120.458 269.623,117.273 266.567,115.121 C264.812,113.845 261.870,112.662 257.715,111.523 L257.715,137.838 ZM253.018,101.234 C253.018,101.234 253.018,77.718 253.020,77.720 C248.615,77.890 245.515,79.221 243.658,81.714 C241.812,84.219 240.884,86.836 240.884,89.567 C240.884,92.867 241.981,95.473 244.155,97.341 C246.352,99.185 249.294,100.505 253.018,101.234 Z"/>
</svg>
