<svg
        xmlns="http://www.w3.org/2000/svg"
        xmlns:xlink="http://www.w3.org/1999/xlink"
        width="140px" height="140px">
    <defs>
        <filter filterUnits="userSpaceOnUse" id="Filter_0" x="0px" y="0px" width="140px" height="140px"  >
            <feOffset in="SourceAlpha" dx="0" dy="22" />
            <feGaussianBlur result="blurOut" stdDeviation="6.325" />
            <feFlood flood-color="rgb(66, 115, 104)" result="floodOut" />
            <feComposite operator="atop" in="floodOut" in2="blurOut" />
            <feComponentTransfer><feFuncA type="linear" slope="0.14"/></feComponentTransfer>
            <feMerge>
                <feMergeNode/>
                <feMergeNode in="SourceGraphic"/>
            </feMerge>
        </filter>

    </defs>
    <g filter="url(#Filter_0)">
        <path fill-rule="evenodd"  fill="rgb(255, 255, 255)"
              d="M69.594,17.812 C86.076,17.812 99.437,31.167 99.437,47.641 C99.437,64.114 86.076,77.469 69.594,77.469 C53.112,77.469 39.750,64.114 39.750,47.641 C39.750,31.167 53.112,17.812 69.594,17.812 Z"/>
    </g>
    <path fill-rule="evenodd"  fill="rgb(157, 227, 213)"
          d="M78.996,38.084 L87.570,40.337 L89.733,31.763 L88.086,31.331 L86.680,36.678 C83.088,30.882 76.676,27.023 69.357,27.023 C58.105,27.023 48.982,36.146 48.982,47.398 C48.982,58.650 58.105,67.773 69.357,67.773 C76.867,67.773 83.420,63.715 86.955,57.669 L85.483,56.870 C82.231,62.393 76.227,66.101 69.357,66.101 C59.028,66.101 50.654,57.727 50.654,47.398 C50.654,37.069 59.028,28.695 69.357,28.695 C76.285,28.695 82.339,32.462 85.566,38.067 L79.428,36.437 L78.996,38.084 Z"/>
    <path fill-rule="evenodd"  fill="rgb(157, 227, 213)"
          d="M70.256,56.615 L70.256,54.983 C71.780,54.896 72.941,54.442 73.836,53.621 C74.731,52.801 75.179,51.710 75.179,50.444 C75.179,49.083 74.817,48.079 74.017,47.442 C73.208,46.717 72.046,46.167 70.343,45.809 L70.256,45.809 L70.256,41.628 C71.418,41.812 72.408,42.170 73.389,42.903 L74.826,40.904 C73.389,39.900 71.866,39.359 70.256,39.271 L70.256,38.181 L68.914,38.181 L68.914,39.271 C67.571,39.359 66.401,39.813 65.506,40.633 C64.611,41.454 64.164,42.545 64.164,43.811 C64.164,45.076 64.525,46.080 65.326,46.717 C66.040,47.354 67.296,47.896 68.905,48.262 L68.905,52.530 C67.649,52.347 66.393,51.710 65.145,50.619 L63.536,52.530 C65.145,53.988 66.943,54.800 68.914,54.983 L68.914,56.615 L70.256,56.615 L70.256,56.615 ZM70.343,48.707 C71.237,48.978 71.780,49.248 72.132,49.528 C72.399,49.894 72.580,50.252 72.580,50.802 C72.580,51.352 72.399,51.710 71.952,52.077 C71.504,52.443 70.962,52.618 70.343,52.714 L70.343,48.707 ZM67.210,44.806 C66.943,44.535 66.763,44.081 66.763,43.627 C66.763,43.086 66.943,42.719 67.296,42.353 C67.744,41.986 68.191,41.812 68.905,41.716 L68.905,45.626 C68.010,45.347 67.477,45.076 67.210,44.806 Z"/>
</svg>
