<svg
        xmlns="http://www.w3.org/2000/svg"
        xmlns:xlink="http://www.w3.org/1999/xlink"
        width="131px" height="141px">
    <defs>
        <filter filterUnits="userSpaceOnUse" id="Filter_0" x="0px" y="0px" width="131px" height="141px"  >
            <feOffset in="SourceAlpha" dx="0" dy="22" />
            <feGaussianBlur result="blurOut" stdDeviation="6.325" />
            <feFlood flood-color="rgb(66, 115, 104)" result="floodOut" />
            <feComposite operator="atop" in="floodOut" in2="blurOut" />
            <feComponentTransfer><feFuncA type="linear" slope="0.14"/></feComponentTransfer>
            <feMerge>
                <feMergeNode/>
                <feMergeNode in="SourceGraphic"/>
            </feMerge>
        </filter>

    </defs>
    <g filter="url(#Filter_0)">
        <path fill-rule="evenodd"  fill="rgb(178, 247, 233)"
              d="M90.948,32.942 C90.875,31.310 90.875,29.753 90.875,28.195 C90.875,26.934 89.913,25.969 88.657,25.969 C79.418,25.969 72.396,23.299 66.556,17.588 C65.669,16.771 64.339,16.771 63.452,17.588 C57.613,23.299 50.591,25.969 41.351,25.969 C40.095,25.969 39.134,26.934 39.134,28.195 C39.134,29.753 39.134,31.310 39.060,32.942 C38.764,48.519 38.321,69.881 64.265,78.857 L65.004,79.005 L65.743,78.857 C91.613,69.881 91.244,48.593 90.948,32.942 Z"/>
    </g>
    <path fill-rule="evenodd"  fill="rgb(58, 72, 86)"
          d="M64.993,69.641 L64.211,69.469 C47.257,63.463 47.520,49.321 47.710,38.995 C47.759,37.888 47.759,36.897 47.759,35.905 C47.758,34.574 48.808,33.535 50.096,33.535 C50.097,33.535 50.098,33.535 50.098,33.535 C55.644,33.535 59.853,31.904 63.345,28.405 C64.259,27.520 65.728,27.520 66.629,28.394 C70.133,31.904 74.343,33.535 79.889,33.535 L80.007,33.538 C80.598,33.559 81.177,33.821 81.603,34.275 C82.027,34.729 82.249,35.320 82.228,35.939 C82.228,36.897 82.228,37.889 82.274,38.927 L82.275,38.952 C82.466,49.289 82.727,63.447 65.776,69.469 L65.651,69.505 L64.993,69.641 ZM64.784,67.687 L64.993,67.730 L65.202,67.687 C80.811,62.107 80.571,48.755 80.390,38.997 C80.342,37.936 80.342,36.920 80.342,35.905 C80.348,35.710 80.269,35.600 80.222,35.549 C80.174,35.498 80.070,35.412 79.906,35.406 C73.806,35.405 69.170,33.599 65.300,29.721 C65.132,29.557 64.853,29.558 64.674,29.731 C60.816,33.599 56.181,35.405 50.098,35.405 C50.098,35.405 50.098,35.405 50.097,35.405 C49.846,35.405 49.643,35.607 49.643,35.855 C49.644,36.924 49.644,37.943 49.596,39.010 C49.415,48.775 49.167,62.120 64.784,67.687 Z"/>
</svg>
