<svg
        xmlns="http://www.w3.org/2000/svg"
        xmlns:xlink="http://www.w3.org/1999/xlink"
        width="139px" height="139px">
    <defs>
        <filter filterUnits="userSpaceOnUse" id="Filter_0" x="0px" y="0px" width="139px" height="139px"  >
            <feOffset in="SourceAlpha" dx="0" dy="22" />
            <feGaussianBlur result="blurOut" stdDeviation="6.325" />
            <feFlood flood-color="rgb(66, 115, 104)" result="floodOut" />
            <feComposite operator="atop" in="floodOut" in2="blurOut" />
            <feComponentTransfer><feFuncA type="linear" slope="0.14"/></feComponentTransfer>
            <feMerge>
                <feMergeNode/>
                <feMergeNode in="SourceGraphic"/>
            </feMerge>
        </filter>

    </defs>
    <g filter="url(#Filter_0)">
        <path fill-rule="evenodd"  fill="rgb(178, 247, 233)"
              d="M69.000,17.000 C85.568,17.000 99.000,30.431 99.000,47.000 C99.000,63.568 85.568,77.000 69.000,77.000 C52.431,77.000 39.000,63.568 39.000,47.000 C39.000,30.431 52.431,17.000 69.000,17.000 Z"/>
    </g>
    <path fill-rule="evenodd"  fill="rgb(58, 72, 86)"
          d="M78.452,37.855 L86.869,40.067 L88.991,31.651 L87.375,31.227 L85.995,36.475 C82.469,30.786 76.175,26.998 68.991,26.998 C57.946,26.998 48.991,35.953 48.991,46.998 C48.991,58.043 57.946,66.998 68.991,66.998 C76.362,66.998 82.795,63.015 86.265,57.080 L84.820,56.296 C81.628,61.716 75.734,65.358 68.991,65.358 C58.852,65.358 50.632,57.137 50.632,46.998 C50.632,36.859 58.852,28.639 68.991,28.639 C75.791,28.639 81.734,32.336 84.901,37.839 L78.877,36.239 L78.452,37.855 Z"/>
    <path fill-rule="evenodd"  fill="rgb(58, 72, 86)"
          d="M69.873,56.046 L69.873,54.444 C71.369,54.358 72.509,53.913 73.388,53.107 C74.266,52.302 74.706,51.230 74.706,49.988 C74.706,48.652 74.351,47.666 73.565,47.041 C72.771,46.330 71.631,45.790 69.958,45.439 L69.873,45.439 L69.873,41.335 C71.014,41.515 71.985,41.866 72.948,42.585 L74.359,40.623 C72.948,39.638 71.453,39.107 69.873,39.021 L69.873,37.950 L68.556,37.950 L68.556,39.021 C67.238,39.107 66.089,39.553 65.211,40.358 C64.332,41.164 63.893,42.234 63.893,43.477 C63.893,44.719 64.248,45.704 65.033,46.330 C65.735,46.955 66.968,47.487 68.547,47.846 L68.547,52.036 C67.314,51.856 66.081,51.230 64.856,50.160 L63.276,52.036 C64.856,53.467 66.621,54.264 68.556,54.444 L68.556,56.046 L69.873,56.046 L69.873,56.046 ZM69.958,48.283 C70.836,48.549 71.369,48.815 71.715,49.089 C71.977,49.448 72.154,49.800 72.154,50.340 C72.154,50.880 71.977,51.230 71.538,51.590 C71.098,51.951 70.566,52.122 69.958,52.216 L69.958,48.283 ZM66.883,44.453 C66.621,44.188 66.444,43.742 66.444,43.297 C66.444,42.766 66.621,42.406 66.968,42.046 C67.407,41.686 67.846,41.515 68.547,41.420 L68.547,45.259 C67.669,44.985 67.145,44.719 66.883,44.453 Z"/>
</svg>
