<svg
        xmlns="http://www.w3.org/2000/svg"
        xmlns:xlink="http://www.w3.org/1999/xlink"
        width="131px" height="138px">
    <defs>
        <filter filterUnits="userSpaceOnUse" id="Filter_0" x="0px" y="0px" width="131px" height="138px"  >
            <feOffset in="SourceAlpha" dx="0" dy="22" />
            <feGaussianBlur result="blurOut" stdDeviation="6.325" />
            <feFlood flood-color="rgb(66, 115, 104)" result="floodOut" />
            <feComposite operator="atop" in="floodOut" in2="blurOut" />
            <feComponentTransfer><feFuncA type="linear" slope="0.14"/></feComponentTransfer>
            <feMerge>
                <feMergeNode/>
                <feMergeNode in="SourceGraphic"/>
            </feMerge>
        </filter>

    </defs>
    <g filter="url(#Filter_0)">
        <path fill-rule="evenodd"  fill="rgb(178, 247, 233)"
              d="M43.000,17.000 L87.000,17.000 C89.209,17.000 91.000,18.791 91.000,21.000 L91.000,72.000 C91.000,74.209 89.209,76.000 87.000,76.000 L43.000,76.000 C40.791,76.000 39.000,74.209 39.000,72.000 L39.000,21.000 C39.000,18.791 40.791,17.000 43.000,17.000 Z"/>
    </g>
    <path fill-rule="evenodd"  fill="rgb(58, 72, 86)"
          d="M76.167,34.550 C76.167,34.550 68.469,48.496 66.272,52.779 C66.148,53.021 65.902,53.110 65.642,53.110 C65.465,53.110 65.282,53.068 65.127,53.007 C60.656,51.216 56.139,49.423 52.351,47.904 C51.977,47.754 51.884,47.455 52.127,47.071 C54.673,43.056 63.799,29.660 63.799,29.660 C63.947,29.449 64.230,29.326 64.516,29.326 C64.632,29.326 64.749,29.346 64.857,29.389 L75.760,33.699 C76.135,33.847 76.318,34.230 76.167,34.550 ZM64.814,31.170 C63.191,33.556 57.014,42.649 54.266,46.870 C55.792,47.480 57.415,48.126 59.089,48.794 C61.070,49.584 63.123,50.403 65.173,51.223 C67.337,47.090 72.344,37.984 74.080,34.834 L64.814,31.170 ZM65.254,54.745 L64.303,56.622 C64.223,56.780 64.000,56.962 63.808,57.027 L59.749,58.144 C59.669,58.167 59.570,58.177 59.469,58.177 C59.319,58.177 59.162,58.154 59.050,58.110 L51.555,55.147 C51.367,55.072 51.170,54.876 51.117,54.710 L49.883,50.928 C49.842,50.760 49.890,50.499 49.989,50.348 L50.845,49.048 C50.916,48.941 51.056,48.878 51.198,48.878 C51.255,48.878 51.313,48.888 51.366,48.909 L65.059,54.322 C65.246,54.396 65.334,54.586 65.254,54.745 ZM51.690,50.836 L51.654,50.891 L52.590,53.758 L59.486,56.484 L62.960,55.528 L63.061,55.331 L51.690,50.836 ZM51.975,57.735 C52.118,57.471 52.477,57.358 52.774,57.485 L56.548,59.097 C56.844,59.224 56.952,59.535 56.787,59.789 L55.597,61.621 C55.431,61.875 55.027,62.083 54.698,62.083 L50.238,62.083 C49.909,62.083 49.756,61.866 49.898,61.601 L51.975,57.735 Z"/>
    <path fill-rule="evenodd"  fill="rgb(58, 72, 86)"
          d="M58.000,61.000 L82.000,61.000 L82.000,62.000 L58.000,62.000 L58.000,61.000 Z"/>
</svg>
