<svg
        xmlns="http://www.w3.org/2000/svg"
        xmlns:xlink="http://www.w3.org/1999/xlink"
        width="104px" height="104px">
    <path fill-rule="evenodd"  fill="rgb(255, 255, 255)"
          d="M52.000,103.200 C23.769,103.200 0.800,80.231 0.800,52.000 C0.800,23.769 23.769,0.800 52.000,0.800 C80.231,0.800 103.200,23.769 103.200,52.000 C103.200,80.231 80.231,103.200 52.000,103.200 ZM52.000,7.200 C27.297,7.200 7.200,27.297 7.200,52.000 C7.200,76.703 27.297,96.800 52.000,96.800 C76.703,96.800 96.800,76.703 96.800,52.000 C96.800,27.297 76.703,7.200 52.000,7.200 ZM27.338,54.263 L31.863,49.738 L45.600,63.475 L72.138,36.937 L76.663,41.462 L45.600,72.525 L27.338,54.263 Z"/>
</svg>
