<svg
        xmlns="http://www.w3.org/2000/svg"
        xmlns:xlink="http://www.w3.org/1999/xlink"
        width="556px" height="519px">
    <path fill-rule="evenodd"  fill="rgb(157, 227, 213)"
          d="M276.687,61.906 C372.647,61.906 450.437,139.697 450.437,235.656 C450.437,331.616 372.647,409.406 276.687,409.406 C180.728,409.406 102.937,331.616 102.937,235.656 C102.937,139.697 180.728,61.906 276.687,61.906 Z"/>
    <path fill-rule="evenodd"  opacity="0.188" fill="rgb(44, 73, 67)"
          d="M277.189,92.321 L98.970,354.768 L92.410,399.602 L256.415,399.602 L270.628,426.941 L295.776,399.602 C295.776,399.602 461.862,409.546 463.061,399.602 C464.260,389.659 460.220,360.330 459.781,353.674 C459.341,347.018 277.189,92.321 277.189,92.321 Z"/>
</svg><svg
xmlns="http://www.w3.org/2000/svg"
xmlns:xlink="http://www.w3.org/1999/xlink"
width="556px" height="519px">
<path fill-rule="evenodd"  fill="rgb(157, 227, 213)"
      d="M276.687,61.906 C372.647,61.906 450.437,139.697 450.437,235.656 C450.437,331.616 372.647,409.406 276.687,409.406 C180.728,409.406 102.937,331.616 102.937,235.656 C102.937,139.697 180.728,61.906 276.687,61.906 Z"/>
<path fill-rule="evenodd"  opacity="0.188" fill="rgb(44, 73, 67)"
      d="M277.189,92.321 L98.970,354.768 L92.410,399.602 L256.415,399.602 L270.628,426.941 L295.776,399.602 C295.776,399.602 461.862,409.546 463.061,399.602 C464.260,389.659 460.220,360.330 459.781,353.674 C459.341,347.018 277.189,92.321 277.189,92.321 Z"/>
</svg>
