<?xml version="1.0" encoding="utf-8"?>
<!-- Generator: Adobe Illustrator 22.0.1, SVG Export Plug-In . SVG Version: 6.00 Build 0)  -->
<svg version="1.1" id="Слой_1" xmlns="http://www.w3.org/2000/svg" xmlns:xlink="http://www.w3.org/1999/xlink" x="0px" y="0px"
	 viewBox="0 0 134 26" style="enable-background:new 0 0 134 26;" xml:space="preserve">
<style type="text/css">
	.st0{opacity:0.8;fill:#B6B4BF;enable-background:new    ;}
	.st1{enable-background:new    ;}
	.st2{fill:#B6B4BF;}
	.st3{fill:#C5C3CC;}
</style>
<path class="st0" d="M22.1,4.7c0,0.5,0,4.7,0,7c0,7.5-3.6,12.3-10.6,14.2l-0.2,0l-0.2,0C4.1,23.9,0.5,19.1,0.5,11.6v-7
	c-0.1-0.4,0-0.5,2.6-1.5l4.4-1.7c1.9-0.7,3.5-1.3,3.5-1.3l0.2-0.1l9.3,3.5C22.1,4.2,22.2,4.2,22.1,4.7z M11.9,1.7l-0.6-0.2
	C10.8,1.6,9.5,2.1,8,2.7C5.7,3.5,2.8,4.6,1.7,5v6.6c0,6.9,3.1,11.2,9.5,13c6.4-1.8,9.5-6,9.5-13c0-2,0-5.4,0-6.6
	C19.3,4.5,13.9,2.4,11.9,1.7z M10.7,17.7l-4.5-4.1c0.6-0.8,0.9-1.1,1.4-1.8l3.1,3.1l5.5-5.9c0.6,0.6,0.9,1,1.5,1.6
	C17.7,10.5,10.9,17.7,10.7,17.7C10.7,17.7,10.7,17.7,10.7,17.7z"/>
<g class="st1">
	<path class="st2" d="M35,2.5c-0.2-0.2-0.5-0.3-0.9-0.3c-0.4,0-0.7,0.1-1,0.3c-0.3,0.2-0.5,0.5-0.6,0.9c-0.1,0.4-0.2,1-0.2,1.7
		c0.2-0.3,0.4-0.6,0.8-0.8c0.4-0.2,0.7-0.3,1.2-0.3c0.4,0,0.8,0.1,1.2,0.3s0.6,0.5,0.8,0.8c0.2,0.4,0.3,0.8,0.3,1.3
		c0,0.5-0.1,0.9-0.3,1.2s-0.4,0.7-0.8,0.9c-0.4,0.2-0.8,0.3-1.3,0.3c-0.7,0-1.2-0.2-1.6-0.5s-0.6-0.8-0.8-1.3
		c-0.1-0.6-0.2-1.2-0.2-2.1c0-1.1,0.2-2,0.6-2.7c0.4-0.6,1.1-1,1.9-1c0.4,0,0.8,0.1,1.1,0.2c0.3,0.2,0.6,0.4,0.7,0.6
		s0.3,0.6,0.3,0.9h-0.8C35.3,2.9,35.2,2.7,35,2.5z M32.8,7.7c0.3,0.3,0.7,0.5,1.3,0.5c0.5,0,0.8-0.1,1.1-0.4
		c0.3-0.3,0.4-0.7,0.4-1.2c0-0.5-0.1-0.9-0.4-1.2C35,5,34.6,4.9,34,4.9c-0.3,0-0.6,0.1-0.8,0.2c-0.3,0.1-0.5,0.3-0.6,0.5
		c-0.2,0.2-0.2,0.5-0.2,0.9C32.4,7,32.5,7.4,32.8,7.7z"/>
	<path class="st2" d="M37.8,5.3c0-1.1,0.2-2,0.5-2.7c0.4-0.6,1-1,2-1c0.9,0,1.6,0.3,2,1c0.4,0.6,0.5,1.5,0.5,2.7
		c0,1.1-0.2,2-0.5,2.7c-0.4,0.6-1,1-2,1c-0.9,0-1.6-0.3-2-1S37.8,6.4,37.8,5.3z M41.9,5.3c0-0.6,0-1.1-0.1-1.5s-0.2-0.7-0.5-1
		c-0.2-0.3-0.6-0.4-1-0.4s-0.8,0.1-1,0.4s-0.4,0.6-0.5,1c-0.1,0.4-0.1,0.9-0.1,1.5s0,1.1,0.1,1.5c0.1,0.4,0.2,0.7,0.5,1
		c0.2,0.3,0.6,0.4,1,0.4s0.8-0.1,1-0.4c0.2-0.3,0.4-0.6,0.5-1S41.9,5.9,41.9,5.3z"/>
	<path class="st2" d="M48.4,4.9v0.8h-4V4.9H48.4z"/>
	<path class="st2" d="M55.5,7.4c-0.3,0.5-0.7,0.9-1.3,1.2c-0.5,0.3-1.2,0.4-1.9,0.4h-2.2V2h2.2c0.7,0,1.4,0.1,1.9,0.4
		c0.5,0.3,1,0.7,1.3,1.2s0.4,1.1,0.4,1.9C55.9,6.2,55.8,6.8,55.5,7.4z M54.3,7.5C54.8,7,55,6.4,55,5.5s-0.2-1.5-0.7-2
		c-0.5-0.5-1.1-0.7-2-0.7H51v5.5h1.3C53.2,8.2,53.8,8,54.3,7.5z"/>
	<path class="st2" d="M60.6,3.7c0.3,0.2,0.6,0.5,0.8,0.9V3.5h0.9v5.5h-0.9V7.8c-0.2,0.4-0.4,0.7-0.8,0.9C60.2,8.9,59.8,9,59.3,9
		c-0.5,0-0.9-0.1-1.3-0.4c-0.4-0.2-0.7-0.6-0.9-1s-0.3-0.9-0.3-1.5c0-0.6,0.1-1,0.3-1.5s0.5-0.8,0.9-1c0.4-0.2,0.8-0.4,1.3-0.4
		C59.8,3.4,60.2,3.5,60.6,3.7z M58.6,4.4c-0.3,0.2-0.5,0.4-0.7,0.7s-0.3,0.7-0.3,1.1c0,0.4,0.1,0.8,0.3,1.1c0.2,0.3,0.4,0.6,0.7,0.7
		c0.3,0.2,0.6,0.3,0.9,0.3c0.3,0,0.6-0.1,0.9-0.3c0.3-0.2,0.5-0.4,0.7-0.7c0.2-0.3,0.3-0.7,0.3-1.1c0-0.4-0.1-0.8-0.3-1.1
		c-0.2-0.3-0.4-0.5-0.7-0.7c-0.3-0.2-0.6-0.3-0.9-0.3C59.2,4.2,58.9,4.2,58.6,4.4z"/>
	<path class="st2" d="M64.1,3.5l1.7,4.4l1.7-4.4h0.9l-3.3,8.1h-0.9l1.1-2.7l-2.2-5.4H64.1z"/>
	<path class="st2" d="M79.4,2v6.9h-0.9V3.9l-2.3,5.1h-0.6l-2.3-5.1v5.1h-0.9V2h0.9l2.6,5.7L78.5,2H79.4z"/>
	<path class="st2" d="M84.7,3.7c0.4,0.2,0.8,0.6,1,1c0.2,0.4,0.4,0.9,0.4,1.5c0,0.6-0.1,1-0.4,1.5c-0.3,0.4-0.6,0.8-1,1
		C84.3,8.9,83.8,9,83.2,9c-0.5,0-1-0.1-1.4-0.3s-0.7-0.6-1-1c-0.2-0.4-0.3-0.9-0.3-1.5c0-0.6,0.1-1.1,0.4-1.5c0.2-0.4,0.6-0.8,1-1
		s0.9-0.4,1.4-0.4S84.3,3.5,84.7,3.7z M82.4,4.4c-0.3,0.2-0.5,0.4-0.7,0.7c-0.2,0.3-0.2,0.7-0.2,1.1c0,0.4,0.1,0.8,0.2,1.1
		s0.4,0.5,0.6,0.7c0.3,0.2,0.6,0.2,0.9,0.2c0.3,0,0.6-0.1,0.9-0.2c0.3-0.2,0.5-0.4,0.7-0.7c0.2-0.3,0.3-0.7,0.3-1.1
		c0-0.4-0.1-0.8-0.3-1.1c-0.2-0.3-0.4-0.6-0.7-0.7c-0.3-0.2-0.6-0.2-0.9-0.2S82.7,4.2,82.4,4.4z"/>
	<path class="st2" d="M91,3.6c0.3,0.2,0.6,0.4,0.8,0.8c0.2,0.3,0.3,0.8,0.3,1.3v3.3h-0.9V5.8c0-0.6-0.1-1-0.4-1.3
		c-0.3-0.3-0.6-0.4-1.1-0.4c-0.5,0-0.8,0.1-1.1,0.4c-0.3,0.3-0.4,0.7-0.4,1.3v3.1h-0.9V3.5h0.9v0.9c0.2-0.3,0.4-0.6,0.7-0.7
		c0.3-0.2,0.7-0.3,1-0.3C90.3,3.4,90.7,3.4,91,3.6z"/>
	<path class="st2" d="M98.5,6.5h-4.4c0,0.5,0.2,1,0.5,1.3c0.3,0.3,0.7,0.5,1.2,0.5c0.4,0,0.7-0.1,0.9-0.3c0.3-0.2,0.4-0.4,0.6-0.7h1
		c-0.2,0.5-0.5,0.9-0.9,1.2C97,8.9,96.5,9,95.8,9c-0.5,0-1-0.1-1.4-0.3s-0.7-0.6-0.9-1c-0.2-0.4-0.3-0.9-0.3-1.5
		c0-0.6,0.1-1.1,0.3-1.5c0.2-0.4,0.5-0.8,1-1c0.4-0.2,0.9-0.4,1.4-0.4c0.5,0,1,0.1,1.4,0.3c0.4,0.2,0.7,0.5,0.9,0.9s0.3,0.8,0.3,1.3
		C98.5,6.2,98.5,6.3,98.5,6.5z M97.5,5.9c0-0.4-0.1-0.7-0.2-0.9c-0.2-0.3-0.4-0.5-0.6-0.6s-0.6-0.2-0.9-0.2c-0.5,0-0.9,0.2-1.2,0.5
		s-0.5,0.7-0.5,1.3H97.5z"/>
	<path class="st2" d="M100,3.5l1.7,4.4l1.7-4.4h0.9l-3.3,8.1h-0.9l1.1-2.7L99,3.5H100z"/>
	<path class="st2" d="M109.4,4.9v0.8h-4V4.9H109.4z"/>
	<path class="st2" d="M115.5,6c0.3,0.3,0.4,0.7,0.4,1.1c0,0.3-0.1,0.6-0.3,0.9c-0.2,0.3-0.4,0.5-0.8,0.7c-0.3,0.2-0.7,0.2-1.2,0.2
		h-2.6V2h2.5c0.5,0,0.9,0.1,1.2,0.2c0.3,0.2,0.6,0.4,0.8,0.7c0.2,0.3,0.3,0.6,0.3,0.9c0,0.4-0.1,0.7-0.4,1c-0.2,0.3-0.6,0.4-1,0.6
		C114.9,5.5,115.2,5.7,115.5,6z M112,5h1.5c0.4,0,0.7-0.1,1-0.3c0.2-0.2,0.4-0.5,0.4-0.8c0-0.4-0.1-0.6-0.4-0.8
		c-0.2-0.2-0.6-0.3-1-0.3H112V5z M114.6,7.9c0.3-0.2,0.4-0.5,0.4-0.9c0-0.4-0.1-0.7-0.4-0.9c-0.3-0.2-0.6-0.3-1.1-0.3H112v2.5h1.6
		C114.1,8.2,114.4,8.1,114.6,7.9z"/>
	<path class="st2" d="M120.7,3.7c0.3,0.2,0.6,0.5,0.8,0.9V3.5h0.9v5.5h-0.9V7.8c-0.2,0.4-0.4,0.7-0.8,0.9c-0.3,0.2-0.8,0.3-1.2,0.3
		c-0.5,0-0.9-0.1-1.3-0.4c-0.4-0.2-0.7-0.6-0.9-1s-0.3-0.9-0.3-1.5c0-0.6,0.1-1,0.3-1.5s0.5-0.8,0.9-1c0.4-0.2,0.8-0.4,1.3-0.4
		C119.9,3.4,120.3,3.5,120.7,3.7z M118.7,4.4c-0.3,0.2-0.5,0.4-0.7,0.7s-0.3,0.7-0.3,1.1c0,0.4,0.1,0.8,0.3,1.1
		c0.2,0.3,0.4,0.6,0.7,0.7c0.3,0.2,0.6,0.3,0.9,0.3c0.3,0,0.6-0.1,0.9-0.3c0.3-0.2,0.5-0.4,0.7-0.7c0.2-0.3,0.3-0.7,0.3-1.1
		c0-0.4-0.1-0.8-0.3-1.1c-0.2-0.3-0.4-0.5-0.7-0.7c-0.3-0.2-0.6-0.3-0.9-0.3C119.3,4.2,119,4.2,118.7,4.4z"/>
	<path class="st2" d="M127.8,3.8c0.4,0.3,0.7,0.7,0.9,1.3h-1c-0.1-0.3-0.3-0.6-0.5-0.8c-0.3-0.2-0.6-0.3-1-0.3
		c-0.5,0-0.9,0.2-1.3,0.5c-0.3,0.4-0.5,0.9-0.5,1.5c0,0.7,0.2,1.2,0.5,1.5c0.3,0.4,0.7,0.5,1.3,0.5c0.4,0,0.7-0.1,1-0.3
		s0.4-0.4,0.5-0.8h1c-0.2,0.5-0.5,1-0.9,1.3c-0.4,0.3-1,0.5-1.6,0.5c-0.5,0-1-0.1-1.4-0.3c-0.4-0.2-0.7-0.6-0.9-1
		c-0.2-0.4-0.3-0.9-0.3-1.5c0-0.6,0.1-1.1,0.3-1.5c0.2-0.4,0.5-0.8,0.9-1c0.4-0.2,0.9-0.4,1.4-0.4C126.8,3.4,127.4,3.5,127.8,3.8z"
		/>
	<path class="st2" d="M131.6,6.2l2.6,2.8h-1.2l-2.2-2.4v2.4h-0.9V1.5h0.9v4.3l2.1-2.4h1.3L131.6,6.2z"/>
</g>
<g class="st1">
	<path class="st3" d="M38.3,16.1c0.8,0.5,1.3,1.3,1.7,2.2h-2.7c-0.2-0.4-0.4-0.6-0.7-0.8c-0.3-0.2-0.6-0.2-1-0.2
		c-0.7,0-1.3,0.2-1.8,0.7c-0.4,0.5-0.7,1.1-0.7,1.9c0,0.8,0.2,1.4,0.7,1.9c0.4,0.5,1,0.7,1.8,0.7c0.5,0,1-0.1,1.3-0.4
		c0.3-0.3,0.6-0.6,0.7-1.1H35v-1.7h5v1.7c-0.1,0.5-0.4,1.1-0.7,1.6c-0.4,0.5-0.9,1-1.5,1.3s-1.3,0.5-2.1,0.5c-0.9,0-1.6-0.2-2.4-0.6
		s-1.3-1-1.7-1.7s-0.6-1.5-0.6-2.4c0-0.9,0.2-1.7,0.6-2.4s1-1.3,1.7-1.7s1.5-0.6,2.4-0.6C36.6,15.3,37.5,15.6,38.3,16.1z"/>
	<path class="st3" d="M46.6,15.5v5.4c0,0.5,0.1,1,0.4,1.3s0.7,0.4,1.2,0.4s0.9-0.1,1.2-0.4s0.4-0.7,0.4-1.3v-5.4H52v5.4
		c0,0.8-0.2,1.5-0.5,2.1c-0.4,0.6-0.8,1-1.4,1.3c-0.6,0.3-1.2,0.4-1.9,0.4c-0.7,0-1.3-0.1-1.9-0.4c-0.6-0.3-1-0.7-1.4-1.3
		c-0.3-0.6-0.5-1.3-0.5-2.1v-5.4H46.6z"/>
	<path class="st3" d="M62.2,23h-3.3l-0.5,1.5H56l3.2-9.2h2.7l3.2,9.2h-2.4L62.2,23z M61.6,21.4l-1.1-3.3l-1.1,3.3H61.6z"/>
	<path class="st3" d="M73.7,24.6L71.6,21h-0.3v3.5h-2.2v-9.1h3.6c0.7,0,1.3,0.1,1.8,0.4c0.5,0.3,0.9,0.6,1.1,1
		c0.3,0.4,0.4,0.9,0.4,1.4c0,0.5-0.2,1-0.5,1.5s-0.8,0.9-1.6,1.1l2.2,3.7H73.7z M71.4,19.3h1.4c0.3,0,0.6-0.1,0.8-0.3
		c0.2-0.2,0.3-0.5,0.3-0.8c0-0.3-0.1-0.6-0.3-0.8c-0.2-0.2-0.5-0.3-0.8-0.3h-1.4V19.3z"/>
	<path class="st3" d="M86.1,23h-3.3l-0.5,1.5H80l3.2-9.2h2.7l3.2,9.2h-2.4L86.1,23z M85.6,21.4l-1.1-3.3l-1.1,3.3H85.6z"/>
	<path class="st3" d="M101.3,24.6H99l-3.7-5.8v5.8h-2.2v-9.2h2.2l3.7,5.8v-5.8h2.2V24.6z"/>
	<path class="st3" d="M112.8,15.5v1.7h-2.5v7.4h-2.2v-7.4h-2.5v-1.7H112.8z"/>
	<path class="st3" d="M119.3,17.1v2h2.9v1.7h-2.9v2.1h3.3v1.7h-5.5v-9.2h5.5v1.7H119.3z"/>
	<path class="st3" d="M129.7,17.1v2h2.9v1.7h-2.9v2.1h3.3v1.7h-5.5v-9.2h5.5v1.7H129.7z"/>
</g>
</svg>
