<svg
        xmlns="http://www.w3.org/2000/svg"
        xmlns:xlink="http://www.w3.org/1999/xlink"
        width="48px" height="48px">
    <path fill-rule="evenodd"  fill="rgb(154, 130, 232)"
          d="M24.066,47.582 C11.027,47.582 0.418,36.973 0.418,23.934 C0.418,10.894 11.027,0.285 24.066,0.285 C37.106,0.285 47.715,10.894 47.715,23.934 C47.715,36.973 37.106,47.582 24.066,47.582 ZM24.066,3.241 C12.656,3.241 3.374,12.524 3.374,23.934 C3.374,35.344 12.656,44.626 24.066,44.626 C35.476,44.626 44.759,35.343 44.759,23.934 C44.759,12.524 35.476,3.241 24.066,3.241 ZM12.675,24.978 L14.765,22.888 L21.110,29.234 L33.368,16.976 L35.458,19.066 L21.110,33.414 L12.675,24.978 Z"/>
</svg>
