<svg 
 xmlns="http://www.w3.org/2000/svg"
 xmlns:xlink="http://www.w3.org/1999/xlink"
 width="134px" height="26px">
<path fill-rule="evenodd"  opacity="0.8" fill="rgb(182, 180, 191)"
 d="M22.084,4.660 C22.084,5.189 22.082,9.385 22.064,11.639 C22.064,19.138 18.494,23.913 11.455,25.826 L11.286,25.871 L11.119,25.826 C4.066,23.914 0.489,19.140 0.489,11.634 L0.489,4.660 C0.408,4.211 0.508,4.173 3.100,3.199 L7.511,1.545 C9.394,0.838 10.967,0.248 11.053,0.215 L11.283,0.126 L20.574,3.614 C22.078,4.179 22.164,4.212 22.084,4.660 ZM11.926,1.680 L11.287,1.440 C10.771,1.635 9.464,2.125 7.961,2.689 C5.717,3.531 2.787,4.630 1.744,5.024 L1.744,11.634 C1.744,18.558 4.866,22.800 11.286,24.597 C17.694,22.800 20.808,18.557 20.808,11.634 C20.825,9.663 20.828,6.215 20.829,5.023 C19.324,4.455 13.881,2.414 11.926,1.680 ZM10.672,17.675 L6.141,13.547 C6.710,12.754 7.002,12.453 7.524,11.775 L10.646,14.833 L16.135,8.941 C16.731,9.586 17.033,9.937 17.681,10.513 C17.681,10.513 10.899,17.670 10.689,17.675 C10.684,17.675 10.672,17.675 10.672,17.675 Z"/>
<text kerning="auto" font-family="Myriad Pro" fill="rgb(0, 0, 0)" transform="matrix( 3.40957974406904, 0, 0, 3.40957965374603,41.6946461904756, 8.94296382190902)" font-size="2.933px"><tspan font-size="2.933px" font-family="Poppins" fill="#B6B4BF">&#54;&#48;&#45;Day&#32;Money&#45;Back</tspan></text>
<text kerning="auto" font-family="Myriad Pro" fill="rgb(0, 0, 0)" transform="matrix( 3.40957974406904, 0, 0, 3.40957965374603,32.5082452249658, 24.5824750546346)" font-size="3.813px"><tspan font-size="3.813px" font-family="Poppins" font-weight="bold" fill="#C5C3CC">Guarantee&#32;</tspan></text>
</svg>