<?xml version="1.0" encoding="utf-8"?>
<!-- Generator: Adobe Illustrator 22.0.1, SVG Export Plug-In . SVG Version: 6.00 Build 0)  -->
<svg version="1.1" id="Слой_1" xmlns="http://www.w3.org/2000/svg" xmlns:xlink="http://www.w3.org/1999/xlink" x="0px" y="0px"
	 width="131.7px" height="29.8px" viewBox="0 0 131.7 29.8" style="enable-background:new 0 0 131.7 29.8;" xml:space="preserve">
<style type="text/css">
	.st0{fill:#253444;}
	.st1{fill:#9A82E8;}
</style>
<g>
	<path class="st0" d="M50.9,14.6h-3.2v-1.1h7.7v1.1h-3.2v9.4h-1.3V14.6z"/>
	<path class="st0" d="M57.2,12.5h1.3v3.1l0,1.6c0.4-0.4,0.8-0.7,1.2-0.9C60,16.1,60.5,16,61,16c0.8,0,1.4,0.3,1.8,0.8
		c0.4,0.5,0.6,1.3,0.6,2.3v4.9h-1.3v-4.8c0-0.7-0.1-1.3-0.4-1.6c-0.2-0.3-0.6-0.5-1.1-0.5c-0.4,0-0.8,0.1-1.1,0.3
		c-0.3,0.2-0.7,0.5-1.1,0.9v5.6h-1.3V12.5z"/>
	<path class="st0" d="M65.3,20.1c0-0.6,0.1-1.2,0.3-1.7c0.2-0.5,0.5-0.9,0.8-1.3c0.3-0.4,0.7-0.6,1.1-0.8s0.8-0.3,1.3-0.3
		c0.5,0,0.9,0.1,1.3,0.3c0.4,0.2,0.7,0.4,1,0.7c0.3,0.3,0.5,0.7,0.6,1.2c0.1,0.4,0.2,0.9,0.2,1.5c0,0.3,0,0.5,0,0.7h-5.2
		c0.1,0.8,0.3,1.5,0.8,2c0.5,0.5,1.1,0.7,1.8,0.7c0.4,0,0.7-0.1,1-0.2c0.3-0.1,0.6-0.3,0.9-0.4l0.5,0.9c-0.3,0.2-0.7,0.4-1.1,0.6
		C70,24,69.6,24.1,69,24.1c-0.5,0-1-0.1-1.5-0.3s-0.8-0.5-1.2-0.8c-0.3-0.3-0.6-0.8-0.8-1.3C65.4,21.3,65.3,20.7,65.3,20.1z
		 M70.7,19.5c0-0.8-0.2-1.4-0.5-1.8S69.4,17,68.8,17c-0.3,0-0.5,0.1-0.8,0.2c-0.3,0.1-0.5,0.3-0.7,0.5c-0.2,0.2-0.4,0.5-0.5,0.8
		c-0.1,0.3-0.2,0.7-0.3,1H70.7z"/>
	<path class="st0" d="M73.6,22.2c0.3,0.3,0.7,0.5,1,0.7c0.4,0.2,0.8,0.3,1.2,0.3c0.5,0,0.9-0.1,1.2-0.4c0.3-0.2,0.4-0.5,0.4-0.9
		c0-0.2-0.1-0.4-0.2-0.5c-0.1-0.1-0.2-0.3-0.4-0.4c-0.2-0.1-0.4-0.2-0.6-0.3c-0.2-0.1-0.4-0.2-0.6-0.3c-0.3-0.1-0.6-0.2-0.8-0.3
		c-0.3-0.1-0.5-0.3-0.7-0.4c-0.2-0.2-0.4-0.4-0.5-0.6c-0.1-0.2-0.2-0.5-0.2-0.8c0-0.3,0.1-0.6,0.2-0.9c0.1-0.3,0.3-0.5,0.5-0.7
		s0.5-0.4,0.8-0.5C75.2,16,75.6,16,76,16c0.5,0,0.9,0.1,1.4,0.3c0.4,0.2,0.8,0.4,1.1,0.6l-0.6,0.8c-0.3-0.2-0.5-0.4-0.8-0.5
		S76.4,17,76,17c-0.5,0-0.9,0.1-1.1,0.3c-0.2,0.2-0.3,0.5-0.3,0.8c0,0.2,0,0.3,0.1,0.5c0.1,0.1,0.2,0.2,0.4,0.4s0.3,0.2,0.6,0.3
		s0.4,0.2,0.6,0.2c0.3,0.1,0.6,0.2,0.8,0.3c0.3,0.1,0.5,0.3,0.8,0.4c0.2,0.2,0.4,0.4,0.6,0.6c0.1,0.3,0.2,0.6,0.2,0.9
		c0,0.3-0.1,0.6-0.2,0.9s-0.3,0.5-0.5,0.7s-0.5,0.4-0.9,0.5c-0.4,0.1-0.8,0.2-1.2,0.2c-0.6,0-1.1-0.1-1.6-0.3
		c-0.5-0.2-0.9-0.5-1.3-0.8L73.6,22.2z"/>
	<path class="st0" d="M81.2,14.6c-0.3,0-0.5-0.1-0.6-0.2c-0.2-0.2-0.3-0.4-0.3-0.6c0-0.3,0.1-0.5,0.3-0.6s0.4-0.2,0.6-0.2
		c0.3,0,0.5,0.1,0.6,0.2s0.3,0.4,0.3,0.6c0,0.2-0.1,0.4-0.3,0.6C81.7,14.5,81.4,14.6,81.2,14.6z M80.5,16.2h1.3v7.8h-1.3V16.2z"/>
	<path class="st0" d="M84.2,22.2c0.3,0.3,0.7,0.5,1,0.7c0.4,0.2,0.8,0.3,1.2,0.3c0.5,0,0.9-0.1,1.2-0.4c0.3-0.2,0.4-0.5,0.4-0.9
		c0-0.2-0.1-0.4-0.2-0.5c-0.1-0.1-0.2-0.3-0.4-0.4c-0.2-0.1-0.4-0.2-0.6-0.3c-0.2-0.1-0.4-0.2-0.6-0.3c-0.3-0.1-0.6-0.2-0.8-0.3
		c-0.3-0.1-0.5-0.3-0.7-0.4c-0.2-0.2-0.4-0.4-0.5-0.6C84,18.8,84,18.5,84,18.2c0-0.3,0.1-0.6,0.2-0.9c0.1-0.3,0.3-0.5,0.5-0.7
		s0.5-0.4,0.8-0.5c0.3-0.1,0.7-0.2,1.1-0.2c0.5,0,0.9,0.1,1.4,0.3c0.4,0.2,0.8,0.4,1.1,0.6l-0.6,0.8c-0.3-0.2-0.5-0.4-0.8-0.5
		S87,17,86.6,17c-0.5,0-0.9,0.1-1.1,0.3c-0.2,0.2-0.3,0.5-0.3,0.8c0,0.2,0,0.3,0.1,0.5c0.1,0.1,0.2,0.2,0.4,0.4s0.3,0.2,0.6,0.3
		s0.4,0.2,0.6,0.2c0.3,0.1,0.6,0.2,0.8,0.3c0.3,0.1,0.5,0.3,0.8,0.4c0.2,0.2,0.4,0.4,0.6,0.6c0.1,0.3,0.2,0.6,0.2,0.9
		c0,0.3-0.1,0.6-0.2,0.9s-0.3,0.5-0.5,0.7s-0.5,0.4-0.9,0.5c-0.4,0.1-0.8,0.2-1.2,0.2c-0.6,0-1.1-0.1-1.6-0.3
		c-0.5-0.2-0.9-0.5-1.3-0.8L84.2,22.2z"/>
	<path class="st0" d="M98.9,13.5c0.5,0,1,0,1.4,0.1c0.4,0.1,0.8,0.3,1.1,0.5c0.3,0.2,0.6,0.5,0.7,0.8c0.2,0.3,0.3,0.8,0.3,1.2
		c0,0.5-0.1,0.9-0.2,1.3c-0.1,0.4-0.3,0.7-0.6,1c-0.2,0.3-0.5,0.6-0.8,0.8c-0.3,0.2-0.7,0.4-1.1,0.5l1.6,4.1h-2.3l-1.3-3.8h-1.3
		l-0.8,3.8h-2.2l2.1-10.4H98.9z M97.9,18.4c0.8,0,1.4-0.2,1.8-0.5c0.4-0.3,0.6-0.8,0.6-1.4c0-0.4-0.1-0.8-0.4-1
		c-0.3-0.2-0.7-0.3-1.3-0.3h-1.1l-0.6,3.1H97.9z"/>
	<path class="st0" d="M105.1,13.5h2.2l-1.1,5.7c0,0.2-0.1,0.4-0.1,0.6c0,0.2,0,0.4,0,0.6c0,0.6,0.1,1,0.4,1.3
		c0.2,0.3,0.6,0.5,1.2,0.5c0.5,0,0.9-0.2,1.2-0.6c0.3-0.4,0.6-1.1,0.8-2.1l1.2-6h2.1l-1.2,6c-0.3,1.6-0.8,2.8-1.5,3.5
		c-0.7,0.7-1.6,1.1-2.7,1.1c-1.2,0-2.2-0.3-2.8-0.9c-0.6-0.6-0.9-1.5-0.9-2.7c0-0.2,0-0.5,0.1-0.8c0-0.3,0.1-0.6,0.1-0.9L105.1,13.5
		z"/>
	<path class="st0" d="M114.4,20.9c0.3,0.4,0.6,0.7,1,1c0.4,0.2,0.8,0.4,1.3,0.4s0.8-0.1,1.1-0.3s0.4-0.5,0.4-0.9
		c0-0.3-0.1-0.5-0.3-0.7c-0.2-0.2-0.5-0.4-0.9-0.6l-1-0.6c-0.5-0.3-0.9-0.6-1.1-1s-0.4-0.9-0.4-1.6c0-0.4,0.1-0.9,0.3-1.3
		c0.2-0.4,0.5-0.7,0.8-1c0.3-0.3,0.7-0.5,1.2-0.7c0.4-0.2,0.9-0.3,1.4-0.3c0.6,0,1.2,0.1,1.7,0.4s1,0.7,1.4,1.2l-1.4,1.3
		c-0.3-0.3-0.5-0.5-0.8-0.7s-0.6-0.3-1-0.3c-0.4,0-0.8,0.1-1,0.3c-0.2,0.2-0.3,0.5-0.3,0.8c0,0.3,0.1,0.5,0.4,0.7s0.6,0.4,1,0.6
		l1,0.6c0.5,0.3,0.9,0.6,1.1,1c0.2,0.4,0.3,0.9,0.3,1.5c0,0.5-0.1,0.9-0.3,1.3s-0.5,0.8-0.8,1.1s-0.8,0.5-1.2,0.7
		c-0.5,0.2-1,0.3-1.6,0.3c-0.7,0-1.3-0.1-2-0.4c-0.6-0.3-1.2-0.8-1.7-1.5L114.4,20.9z"/>
	<path class="st0" d="M123.7,13.5h2.2l-0.8,4h3.6l0.8-4h2.2l-2.1,10.4h-2.2l0.9-4.5h-3.6l-0.9,4.5h-2.2L123.7,13.5z"/>
</g>
<g>
	<g>
		<polygon class="st1" points="5.1,9 12.9,9 12.9,12 4.1,12 		"/>
	</g>
</g>
<g>
	<g>
		<polygon class="st1" points="5.1,22.3 12.9,22.3 12.9,25.3 4.1,25.3 		"/>
	</g>
</g>
<g>
	<g>
		<polygon class="st1" points="1,15.7 12.9,15.7 12.9,18.6 0,18.6 		"/>
	</g>
</g>
<g>
	<g>
		<g>
			<path class="st0" d="M39.5,8.5l1.1,1.1L42,8.1l-3.6-3.6L36.9,6L38,7l-1.5,1.5c-1.7-1.5-3.8-2.6-6.1-3V2.9h1.8V0h-7.7v2.9h1.8v2.6
				c-5.8,1-10.2,6-10.2,12c0,6.7,5.5,12.2,12.2,12.2s12.2-5.5,12.2-12.2c0-2.8-1-5.5-2.6-7.5L39.5,8.5z M28.3,26.9
				c-5.2,0-9.4-4.2-9.4-9.4s4.2-9.4,9.4-9.4s9.4,4.2,9.4,9.4S33.5,26.9,28.3,26.9z"/>
		</g>
	</g>
</g>
<g>
	<g>
		<path class="st1" d="M28.3,10.3c-4,0-7.2,3.2-7.2,7.2s3.2,7.2,7.2,7.2s7.2-3.2,7.2-7.2S32.3,10.3,28.3,10.3z M29.1,18.3l-1.5-1.5
			l3-3l1.5,1.5L29.1,18.3z"/>
	</g>
</g>
</svg>
