<svg 
 xmlns="http://www.w3.org/2000/svg"
 xmlns:xlink="http://www.w3.org/1999/xlink"
 width="30px" height="30px">
<path fill-rule="evenodd"  fill="rgb(157, 227, 213)"
 d="M15.000,-0.000 C23.284,-0.000 30.000,6.715 30.000,15.000 C30.000,23.284 23.284,30.000 15.000,30.000 C6.716,30.000 -0.000,23.284 -0.000,15.000 C-0.000,6.715 6.716,-0.000 15.000,-0.000 Z"/>
<path fill-rule="evenodd"  fill="rgb(255, 255, 255)"
 d="M19.835,9.986 C18.479,8.747 16.792,8.127 14.777,8.127 C12.660,8.127 10.854,8.831 9.365,10.242 C7.875,11.652 7.129,13.405 7.129,15.504 C7.129,17.517 7.839,19.245 9.255,20.695 C10.678,22.144 12.590,22.869 14.996,22.869 C16.446,22.869 17.869,22.574 19.264,21.983 C19.720,21.789 19.941,21.272 19.756,20.818 L19.756,20.818 C19.565,20.349 19.025,20.133 18.555,20.331 C17.341,20.849 16.152,21.107 14.993,21.107 C13.148,21.107 11.719,20.551 10.706,19.435 C9.695,18.322 9.189,17.014 9.189,15.514 C9.189,13.883 9.732,12.524 10.815,11.432 C11.895,10.344 13.227,9.796 14.805,9.796 C16.258,9.796 17.487,10.244 18.488,11.141 C19.489,12.037 19.990,13.164 19.990,14.524 C19.990,15.454 19.759,16.229 19.301,16.846 C18.843,17.465 18.366,17.772 17.872,17.772 C17.605,17.772 17.471,17.630 17.471,17.345 C17.471,17.113 17.490,16.843 17.523,16.530 L18.087,11.955 L16.146,11.955 L16.021,12.403 C15.527,12.003 14.984,11.803 14.395,11.803 C13.460,11.803 12.660,12.172 11.995,12.909 C11.328,13.646 10.997,14.596 10.997,15.756 C10.997,16.891 11.291,17.807 11.883,18.503 C12.474,19.200 13.184,19.547 14.016,19.547 C14.759,19.547 15.393,19.236 15.921,18.620 C16.319,19.212 16.904,19.507 17.678,19.507 C18.816,19.507 19.798,19.017 20.627,18.034 C21.455,17.053 21.871,15.868 21.871,14.482 C21.871,12.726 21.194,11.225 19.835,9.986 ZM15.363,16.906 C15.020,17.363 14.610,17.595 14.134,17.595 C13.809,17.595 13.548,17.426 13.351,17.089 C13.151,16.752 13.051,16.334 13.051,15.832 C13.051,15.213 13.191,14.713 13.470,14.335 C13.749,13.956 14.095,13.763 14.507,13.763 C14.865,13.763 15.184,13.904 15.463,14.190 C15.742,14.475 15.882,14.855 15.882,15.330 C15.879,15.923 15.706,16.446 15.363,16.906 Z"/>
</svg>