<svg 
 xmlns="http://www.w3.org/2000/svg"
 xmlns:xlink="http://www.w3.org/1999/xlink"
 width="30px" height="30px">
<path fill-rule="evenodd"  fill="rgb(157, 227, 213)"
 d="M15.000,-0.000 C23.284,-0.000 30.000,6.715 30.000,15.000 C30.000,23.284 23.284,30.000 15.000,30.000 C6.716,30.000 -0.000,23.284 -0.000,15.000 C-0.000,6.715 6.716,-0.000 15.000,-0.000 Z"/>
<path fill-rule="evenodd"  fill="rgb(255, 255, 255)"
 d="M20.340,17.661 C19.532,16.959 18.712,16.533 17.913,17.235 L17.436,17.659 C17.087,17.967 16.439,19.404 13.931,16.474 C11.424,13.547 12.916,13.091 13.265,12.786 L13.745,12.361 C14.539,11.658 14.239,10.773 13.666,9.863 L13.321,9.310 C12.745,8.401 12.118,7.805 11.322,8.507 L10.892,8.888 C10.540,9.150 9.556,9.996 9.317,11.605 C9.030,13.534 9.936,15.745 12.012,18.170 C14.085,20.596 16.115,21.815 18.038,21.794 C19.636,21.777 20.601,20.906 20.903,20.588 L21.335,20.207 C22.129,19.504 21.636,18.790 20.827,18.087 L20.340,17.661 Z"/>
</svg>